<svg width="16" height="16" viewBox="0 0 16 16" fill="none" xmlns="http://www.w3.org/2000/svg">
<g id="added eye" clip-path="url(#clip0_18167_791)">
<path id="Vector" d="M6.66663 8.00008C6.66663 8.3537 6.8071 8.69284 7.05715 8.94289C7.3072 9.19294 7.64634 9.33341 7.99996 9.33341C8.35358 9.33341 8.69272 9.19294 8.94277 8.94289C9.19282 8.69284 9.33329 8.3537 9.33329 8.00008C9.33329 7.64646 9.19282 7.30732 8.94277 7.05727C8.69272 6.80722 8.35358 6.66675 7.99996 6.66675C7.64634 6.66675 7.3072 6.80722 7.05715 7.05727C6.8071 7.30732 6.66663 7.64646 6.66663 8.00008Z" stroke="#ACADB9" stroke-width="1.33333" stroke-linecap="round" stroke-linejoin="round"/>
<path id="Vector_2" d="M7.40133 11.9713C5.26533 11.7667 3.46533 10.442 2 8C3.6 5.33333 5.6 4 8 4C10.4 4 12.4 5.33333 14 8C13.8599 8.23391 13.7125 8.46336 13.558 8.688" stroke="#ACADB9" stroke-width="1.33333" stroke-linecap="round" stroke-linejoin="round"/>
<path id="Vector_3" d="M10 12.6666L11.3333 13.9999L14 11.3333" stroke="#ACADB9" stroke-width="1.33333" stroke-linecap="round" stroke-linejoin="round"/>
</g>
<defs>
<clipPath id="clip0_18167_791">
<rect width="16" height="16" fill="white"/>
</clipPath>
</defs>
</svg>
