<svg width="20" height="20" viewBox="0 0 20 20" fill="none" xmlns="http://www.w3.org/2000/svg">
<g id="clapperboard" clip-path="url(#clip0_18052_2544)">
<g id="Layer 2">
<g id="33 - Video Editing">
<path id="Vector" d="M12.311 14.2752L8.48755 12.065C8.42817 12.0307 8.36081 12.0127 8.29224 12.0127C8.22367 12.0127 8.15631 12.0307 8.09693 12.065C8.03755 12.0993 7.98823 12.1486 7.95395 12.208C7.91966 12.2674 7.90161 12.3347 7.90161 12.4033V16.8232C7.90161 16.8918 7.91966 16.9592 7.95395 17.0185C7.98823 17.0779 8.03755 17.1272 8.09693 17.1615C8.15631 17.1958 8.22367 17.2138 8.29224 17.2138C8.36081 17.2138 8.42817 17.1958 8.48755 17.1615L12.311 14.9514C12.3703 14.917 12.4195 14.8677 12.4537 14.8084C12.4879 14.7491 12.5059 14.6818 12.5059 14.6133C12.5059 14.5448 12.4879 14.4775 12.4537 14.4181C12.4195 14.3588 12.3703 14.3095 12.311 14.2752ZM8.68286 16.1463V13.0803L11.3348 14.6135L8.68286 16.1463Z" fill="black"/>
<path id="Vector_2" d="M18.8281 6.17802H5.2578L18.6223 3.81865C18.9282 3.76463 19.2002 3.59134 19.3784 3.33687C19.5566 3.08241 19.6265 2.76759 19.5726 2.46162L19.3129 0.984274C19.2164 0.361618 18.573 -0.088773 17.9551 0.0338832L0.968347 3.03232C0.662573 3.08635 0.39074 3.25952 0.212547 3.51381C0.0343527 3.7681 -0.035634 4.08272 0.0179559 4.38857L0.408581 6.60146V18.8147C0.408581 19.1255 0.532046 19.4236 0.751815 19.6434C0.971584 19.8631 1.26966 19.9866 1.58046 19.9866H18.8281C19.1389 19.9866 19.437 19.8631 19.6568 19.6434C19.8765 19.4236 20 19.1255 20 18.8147V7.3499C20 7.0391 19.8765 6.74103 19.6568 6.52126C19.437 6.30149 19.1389 6.17802 18.8281 6.17802ZM19.2187 7.3499V9.24013H16.1918L17.0211 6.95927H18.8281C18.9317 6.95927 19.0311 7.00043 19.1043 7.07368C19.1776 7.14694 19.2187 7.2463 19.2187 7.3499ZM1.18905 9.24013V6.95927H5.1371L4.3078 9.24013H1.18905ZM5.96835 6.95927H8.81991L7.99178 9.24013H5.14022L5.96835 6.95927ZM9.65233 6.95927H12.5039L11.6762 9.24013H8.8246L9.65233 6.95927ZM13.3367 6.95927H16.1883L15.3605 9.24013H12.509L13.3367 6.95927ZM12.1406 4.16943L9.48436 4.63818L8.62499 2.47451L11.2832 2.00576L12.1406 4.16943ZM12.0687 1.86474L14.7933 1.38349L15.6527 3.54834L12.9277 4.0292L12.0687 1.86474ZM8.69725 4.7792L6.041 5.24794L5.18163 3.0831L7.83788 2.61435L8.69725 4.7792ZM18.0906 0.803024C18.1133 0.799152 18.1363 0.797192 18.1594 0.797164C18.2511 0.797324 18.3398 0.829737 18.41 0.888727C18.4802 0.947717 18.5274 1.02952 18.5433 1.11982L18.8035 2.59677C18.8124 2.6473 18.8113 2.6991 18.8003 2.7492C18.7892 2.7993 18.7683 2.84673 18.7389 2.88877C18.7095 2.93082 18.6721 2.96665 18.6288 2.99423C18.5855 3.02181 18.5372 3.04059 18.4867 3.04951L16.4367 3.41201L15.5773 1.24716L18.0906 0.803024ZM1.10389 3.80263L4.39647 3.2206L5.25585 5.38545L1.11522 6.11591L0.787097 4.2542C0.769385 4.15232 0.792786 4.04759 0.85217 3.96294C0.911554 3.8783 1.00208 3.82065 1.10389 3.80263ZM18.8281 19.2054H1.57967C1.47607 19.2054 1.37672 19.1642 1.30346 19.091C1.2302 19.0177 1.18905 18.9183 1.18905 18.8147V10.0214H19.2187V18.8147C19.2187 18.9183 19.1776 19.0177 19.1043 19.091C19.0311 19.1642 18.9317 19.2054 18.8281 19.2054Z" fill="black"/>
<path id="Vector_3" d="M2.91681 7.82312C2.86449 7.77082 2.7984 7.73444 2.72621 7.71823C2.65402 7.70202 2.57872 7.70665 2.50906 7.73156C2.4394 7.75648 2.37825 7.80067 2.33272 7.85899C2.28719 7.9173 2.25916 7.98735 2.25189 8.06097C2.24462 8.1346 2.25841 8.20877 2.29165 8.27487C2.32489 8.34096 2.37621 8.39626 2.43965 8.43432C2.50309 8.47239 2.57604 8.49165 2.65 8.48988C2.72396 8.4881 2.7959 8.46536 2.85744 8.4243C2.90499 8.39182 2.94485 8.34932 2.97421 8.29978C3.00357 8.25024 3.02172 8.19487 3.02738 8.13756C3.03304 8.08026 3.02607 8.02241 3.00697 7.96808C2.98787 7.91376 2.95709 7.86428 2.91681 7.82312Z" fill="black"/>
<path id="Vector_4" d="M1.98627 4.88973C1.99601 4.91331 2.00791 4.93593 2.02182 4.95731C2.05421 5.00497 2.09668 5.04494 2.14622 5.07438C2.19576 5.10382 2.25116 5.12202 2.30851 5.12768C2.36586 5.13335 2.42376 5.12634 2.4781 5.10716C2.53244 5.08798 2.58191 5.05709 2.62299 5.01668C2.89292 4.74325 2.64799 4.28465 2.27143 4.35731C2.21494 4.36884 2.16168 4.39268 2.11545 4.42713C2.06921 4.46157 2.03113 4.50577 2.00391 4.5566C1.97669 4.60743 1.96099 4.66362 1.95795 4.7212C1.9549 4.77878 1.96457 4.83632 1.98627 4.88973Z" fill="black"/>
</g>
</g>
</g>
<defs>
<clipPath id="clip0_18052_2544">
<rect width="20" height="20" fill="white"/>
</clipPath>
</defs>
</svg>
