<svg width="312" height="219" viewBox="0 0 312 219" fill="none" xmlns="http://www.w3.org/2000/svg">
<mask id="mask0_18006_4893" style="mask-type:alpha" maskUnits="userSpaceOnUse" x="0" y="0" width="312" height="219">
<path d="M187.034 20.487C251.408 53.497 269.791 31.802 298.744 75.783C327.697 119.765 307.969 201.958 247.133 215.434C186.296 228.91 175.389 195.729 92.8249 210.123C10.2619 224.517 -31.6181 98.924 30.1179 46.553C91.8549 -5.81703 122.661 -12.523 187.034 20.487Z" fill="white"/>
</mask>
<g mask="url(#mask0_18006_4893)">
<path d="M187.034 20.487C251.408 53.497 269.791 31.802 298.744 75.783C327.697 119.765 307.969 201.958 247.133 215.434C186.296 228.91 175.389 195.729 92.8249 210.123C10.2619 224.517 -31.6181 98.924 30.1179 46.553C91.8549 -5.81703 122.661 -12.523 187.034 20.487Z" fill="#F2EBF9"/>
<path d="M122.66 -44.6799C127.369 16.4771 149.281 53.4991 188.396 66.3851C227.511 79.2721 280.66 60.7611 347.842 10.8531" stroke="white" stroke-width="1.32"/>
<path d="M145.806 -44.6799C156.231 27.2191 132.817 64.3651 75.566 66.7601C-10.311 70.3521 51.733 5.13507 81.03 31.1331C110.327 57.1301 107.942 113.423 62.23 152.005C31.755 177.727 -2.96703 190.588 -41.936 190.588M322.769 152.825C195.858 144.625 95.19 189.817 20.765 288.401" stroke="white" stroke-width="1.32"/>
<path d="M-10.3101 151.88C72.9369 174.195 126.606 219.702 150.696 288.401" stroke="white" stroke-width="1.32"/>
<path d="M322.769 72.954C266.599 129.024 227.39 145.326 205.141 121.86C171.767 86.662 235.514 58.944 244.917 90.402C254.32 121.86 204.05 146.826 137.121 157.93C92.502 165.333 39.7041 197.717 -21.2729 255.083M198.702 288.401C190.447 239.393 201.243 213.105 231.089 209.538C260.936 205.971 294.122 219.115 330.647 248.969M240.263 15.825C262.878 15.825 281.211 -9.89502 281.211 -41.624C281.211 -73.352 262.878 -99.072 240.263 -99.072C217.649 -99.072 199.316 -73.352 199.316 -41.624C199.316 -9.89602 217.649 15.825 240.263 15.825Z" stroke="white" stroke-width="1.32"/>
<path d="M322.769 109.387C269.599 161.224 246.782 224.07 254.32 297.925" stroke="white" stroke-width="1.32"/>
<path d="M-10.3101 82.345C121.014 108.879 224.066 180.739 298.844 297.925" stroke="white" stroke-width="1.32"/>
<path d="M37.9299 -44.6799C-2.21006 -36.4659 -17.0501 -19.3379 -6.59206 6.70507C9.09494 45.7691 66.9039 119.64 -10.3101 132.452M-10.3101 220.141C20.9459 266.73 54.0669 278.378 89.0509 255.083C141.528 220.141 159.321 212.887 181.192 220.141C195.773 224.976 209.033 247.73 220.97 288.401" stroke="white" stroke-width="1.32"/>
<path d="M313.792 161.358H0.0720215V223.838H313.792V161.358Z" fill="#F2EBF9"/>
<path d="M-27.208 161.021H355.592" stroke="black" stroke-width="1.294" stroke-linecap="round" stroke-linejoin="round"/>
</g>
</svg>
