<svg width="400" height="300" viewBox="0 0 400 300" fill="none" xmlns="http://www.w3.org/2000/svg">
<mask id="mask0_18128_763" style="mask-type:alpha" maskUnits="userSpaceOnUse" x="45" y="44" width="312" height="219">
<path d="M232.034 64.487C296.408 97.497 314.791 75.802 343.744 119.783C372.697 163.765 352.969 245.958 292.133 259.434C231.296 272.91 220.389 239.729 137.825 254.123C55.262 268.517 13.382 142.924 75.118 90.553C136.855 38.183 167.661 31.477 232.034 64.487Z" fill="white"/>
</mask>
<g mask="url(#mask0_18128_763)">
<path d="M232.034 64.487C296.408 97.497 314.791 75.802 343.744 119.783C372.697 163.765 352.969 245.958 292.133 259.434C231.296 272.91 220.389 239.729 137.825 254.123C55.262 268.517 13.382 142.924 75.118 90.553C136.855 38.183 167.661 31.477 232.034 64.487Z" fill="#F2EBF9"/>
<path d="M167.66 -0.679932C172.369 60.4771 194.281 97.4991 233.396 110.385C272.511 123.272 325.66 104.761 392.842 54.8531" stroke="white" stroke-width="1.32"/>
<path d="M190.806 -0.679932C201.231 71.2191 177.817 108.365 120.566 110.76C34.6891 114.352 96.7331 49.1351 126.03 75.1331C155.327 101.13 152.942 157.423 107.23 196.005C76.7551 221.727 42.0331 234.588 3.06409 234.588M367.769 196.825C240.858 188.625 140.19 233.817 65.7651 332.401" stroke="white" stroke-width="1.32"/>
<path d="M34.6901 195.88C117.937 218.195 171.606 263.702 195.696 332.401" stroke="white" stroke-width="1.32"/>
<path d="M367.769 116.954C311.599 173.024 272.39 189.326 250.141 165.86C216.767 130.662 280.514 102.944 289.917 134.402C299.32 165.86 249.05 190.826 182.121 201.93C137.502 209.333 84.7041 241.717 23.7271 299.083M243.702 332.401C235.447 283.393 246.243 257.105 276.089 253.538C305.936 249.971 339.122 263.115 375.647 292.969M285.263 59.825C307.878 59.825 326.211 34.105 326.211 2.37598C326.211 -29.352 307.878 -55.072 285.263 -55.072C262.649 -55.072 244.316 -29.352 244.316 2.37598C244.316 34.104 262.649 59.825 285.263 59.825Z" stroke="white" stroke-width="1.32"/>
<path d="M367.769 153.387C314.599 205.224 291.782 268.07 299.32 341.925" stroke="white" stroke-width="1.32"/>
<path d="M34.6901 126.345C166.014 152.879 269.066 224.739 343.844 341.925" stroke="white" stroke-width="1.32"/>
<path d="M82.9301 -0.679932C42.7901 7.53407 27.9501 24.6621 38.4081 50.7051C54.0951 89.7691 111.904 163.64 34.6901 176.452M34.6901 264.141C65.9461 310.73 99.0671 322.378 134.051 299.083C186.528 264.141 204.321 256.887 226.192 264.141C240.773 268.976 254.033 291.73 265.97 332.401" stroke="white" stroke-width="1.32"/>
<path d="M358.792 205.358H45.0721V267.838H358.792V205.358Z" fill="#F2EBF9"/>
<path d="M17.7921 205.021H400.592" stroke="black" stroke-width="1.294" stroke-linecap="round" stroke-linejoin="round"/>
</g>
<mask id="mask1_18128_763" style="mask-type:alpha" maskUnits="userSpaceOnUse" x="96" y="102" width="33" height="42">
<path d="M96.2 110.384L113.921 102.497L128.659 135.591L110.939 143.478L96.2 110.384Z" fill="white"/>
</mask>
<g mask="url(#mask1_18128_763)">
<path d="M96.2 110.384L113.921 102.496L128.659 135.59L110.938 143.478L96.2 110.384Z" fill="white" stroke="black" stroke-width="1.384" stroke-linecap="round" stroke-linejoin="round"/>
<path d="M121.299 116.035C132.353 111.114 137.618 98.8251 133.057 88.5851C128.497 78.3451 115.839 74.0321 104.784 78.9531C93.7298 83.8731 88.4648 96.1631 93.0258 106.403C97.5858 116.643 110.244 120.955 121.299 116.035Z" fill="black"/>
</g>
<path d="M216.98 175.79L217.422 200.795L260.41 200.053L259.969 175.048L216.98 175.79Z" fill="white"/>
<path fill-rule="evenodd" clip-rule="evenodd" d="M244.433 186.615L257.13 186.886V188.31L253.867 188.309C252.955 188.309 252.052 188.488 251.209 188.837C250.366 189.185 249.6 189.697 248.955 190.342C248.31 190.987 247.798 191.752 247.449 192.595C247.1 193.438 246.92 194.341 246.92 195.253V195.27C246.925 197.118 247.663 198.89 248.972 200.195C250.281 201.5 252.055 202.233 253.903 202.233L258.712 202.234C265.214 202.235 270.485 196.967 270.483 190.467V186.49C270.481 177.793 263.427 170.742 254.727 170.741H254.726L209.56 170.732" fill="white"/>
<path d="M244.433 186.615L257.13 186.886V188.31L253.867 188.309C252.955 188.309 252.052 188.488 251.209 188.837C250.366 189.185 249.6 189.697 248.955 190.342C248.31 190.987 247.798 191.752 247.449 192.595C247.1 193.438 246.92 194.341 246.92 195.253V195.27C246.925 197.118 247.663 198.89 248.972 200.195C250.281 201.5 252.055 202.233 253.903 202.233L258.712 202.234C265.214 202.235 270.485 196.967 270.483 190.467V186.49C270.481 177.793 263.427 170.742 254.727 170.741H254.726L209.56 170.732" stroke="black" stroke-width="1.384" stroke-linecap="round" stroke-linejoin="round"/>
<path fill-rule="evenodd" clip-rule="evenodd" d="M244.433 186.615L257.13 186.886V188.31L253.867 188.309C252.955 188.309 252.052 188.488 251.209 188.837C250.366 189.185 249.6 189.697 248.955 190.342C248.31 190.987 247.798 191.752 247.449 192.595C247.1 193.438 246.92 194.341 246.92 195.253V195.27C246.925 197.118 247.663 198.89 248.972 200.195C250.281 201.5 252.055 202.233 253.903 202.233L258.712 202.234C265.214 202.235 270.485 196.967 270.483 190.467V186.49C270.481 177.793 263.427 170.742 254.727 170.741H254.726L209.56 170.732" fill="white"/>
<path d="M244.433 186.615L257.13 186.886V188.31L253.867 188.309C252.955 188.309 252.052 188.488 251.209 188.837C250.366 189.185 249.6 189.697 248.955 190.342C248.31 190.987 247.798 191.752 247.449 192.595C247.1 193.438 246.92 194.341 246.92 195.253V195.27C246.925 197.118 247.663 198.89 248.972 200.195C250.281 201.5 252.055 202.233 253.903 202.233L258.712 202.234C265.214 202.235 270.485 196.967 270.483 190.467V186.49C270.481 177.793 263.427 170.742 254.727 170.741H254.726L209.56 170.732" stroke="black" stroke-width="1.384" stroke-linecap="round" stroke-linejoin="round"/>
<path fill-rule="evenodd" clip-rule="evenodd" d="M211.692 207.182L246.934 207.188C248.746 207.189 250.487 206.478 251.78 205.208C253.073 203.938 253.815 202.211 253.847 200.399C253.877 198.628 253.203 196.918 251.972 195.645C250.742 194.371 249.056 193.639 247.285 193.608L247.168 193.607L230.693 193.604" fill="white"/>
<path d="M211.692 207.182L246.934 207.188C248.746 207.189 250.487 206.478 251.78 205.208C253.073 203.938 253.815 202.211 253.847 200.399C253.877 198.628 253.203 196.918 251.972 195.645C250.742 194.371 249.056 193.639 247.285 193.608L247.168 193.607L230.693 193.604" stroke="black" stroke-width="1.32" stroke-linecap="round" stroke-linejoin="round"/>
<path fill-rule="evenodd" clip-rule="evenodd" d="M111.644 127.635C116.576 125.265 122.128 124.506 127.515 125.467C132.902 126.428 137.85 129.059 141.658 132.988L172.825 165.133L221.218 164.298L222.006 208.922L148.882 210.184C142.091 210.3 135.423 208.373 129.741 204.653C124.058 200.933 119.625 195.592 117.015 189.322L101.94 153.128C97.8879 143.398 102.15 132.2 111.644 127.635Z" fill="#EAEBED" stroke="black" stroke-width="1.32" stroke-linejoin="round"/>
<path d="M180.306 165.053L158.03 166.01L143.883 145.244" stroke="black" stroke-width="1.32" stroke-linecap="round" stroke-linejoin="round"/>
<path d="M115.144 126.335C120.227 125.201 125.539 125.698 130.323 127.755C135.108 129.812 139.123 133.324 141.798 137.793L143.565 140.743L147.539 141.398C147.645 144.121 148.337 146.789 149.568 149.221C150.799 151.652 152.54 153.789 154.672 155.486L167.344 165.573" stroke="black" stroke-width="1.32" stroke-linecap="round" stroke-linejoin="round"/>
<path fill-rule="evenodd" clip-rule="evenodd" d="M207.401 160.142L222.168 161.452L223.052 211.575L206.088 213.176L207.401 160.142Z" fill="#EAEBED" stroke="black" stroke-width="1.32" stroke-linejoin="round"/>
<path fill-rule="evenodd" clip-rule="evenodd" d="M223.527 170.865L224.97 206.846L222.976 206.88L222.342 170.885L223.527 170.865ZM89.904 72.7041C98.992 68.6591 109.642 72.7501 113.692 81.8421C113.79 82.0621 113.884 82.2861 113.973 82.5101L115.914 87.3881C119.616 96.6881 115.319 107.25 106.178 111.319C97.142 115.341 86.553 111.273 82.528 102.233L80.405 97.4681C76.19 88.0021 80.442 76.9151 89.904 72.7041Z" fill="black"/>
<path fill-rule="evenodd" clip-rule="evenodd" d="M115.689 83.8881L120.291 94.2221C123.78 102.056 120.26 111.231 112.43 114.717C104.6 118.202 95.425 114.677 91.936 106.844L87.334 96.5091C83.845 88.6761 87.364 79.5001 95.194 76.0151C103.025 72.5301 112.2 76.0551 115.689 83.8881Z" fill="white" stroke="black" stroke-width="1.412" stroke-linecap="round" stroke-linejoin="round"/>
<path fill-rule="evenodd" clip-rule="evenodd" d="M116.752 89.604L119.544 91.067L121.057 92.555L119.809 96.469L116.769 93.042L116.752 89.604Z" fill="white"/>
<path d="M117.073 104.905C115.794 105.474 114.341 105.511 113.034 105.009C111.727 104.507 110.673 103.506 110.104 102.227" stroke="black" stroke-width="1.412" stroke-linecap="round" stroke-linejoin="round"/>
<path fill-rule="evenodd" clip-rule="evenodd" d="M87.91 77.61C83.026 77.19 80.647 79.841 80.771 85.56C80.869 90.088 82.719 98.125 92.052 107.24C92.439 107.619 91.8 100.09 91.967 99.455C93.229 94.635 93.509 89.732 92.808 84.744C92.015 79.097 90.382 76.72 87.91 77.61Z" fill="black"/>
<path fill-rule="evenodd" clip-rule="evenodd" d="M82.4169 77.3089C80.0009 77.0539 74.1499 78.4309 74.3369 87.0089C74.4349 91.5379 77.6869 102.456 87.6169 108.817C87.9959 109.059 85.3649 101.54 85.5319 100.904C86.7939 96.0849 87.0739 91.1809 86.3729 86.1929C85.1829 77.7229 84.8329 77.5629 82.4169 77.3089Z" fill="black"/>
<path fill-rule="evenodd" clip-rule="evenodd" d="M91.7401 98.4519L89.9801 98.9319C89.4294 99.0822 88.9206 99.3569 88.4928 99.7349C88.065 100.113 87.7297 100.584 87.5126 101.112C87.2956 101.64 87.2026 102.21 87.2408 102.78C87.279 103.35 87.4474 103.903 87.7331 104.397C88.4463 105.632 89.5157 106.623 90.8015 107.24C92.0872 107.857 93.5294 108.072 94.9391 107.856L95.8661 107.714" fill="white"/>
<path d="M91.7401 98.4519L89.9801 98.9319C89.4294 99.0822 88.9206 99.3569 88.4928 99.7349C88.065 100.113 87.7297 100.584 87.5126 101.112C87.2956 101.64 87.2026 102.21 87.2408 102.78C87.279 103.35 87.4474 103.903 87.7331 104.397C88.4463 105.632 89.5157 106.623 90.8015 107.24C92.0872 107.857 93.5294 108.072 94.9391 107.856L95.8661 107.714M91.0481 102.098L92.3321 104.982M91.8551 103.911L90.0221 103.423" stroke="black" stroke-width="1.412" stroke-linecap="round" stroke-linejoin="round"/>
<path fill-rule="evenodd" clip-rule="evenodd" d="M118.246 89.814L123.146 94.24L120.465 97.11" fill="white"/>
<path d="M118.246 89.814L123.146 94.24L120.465 97.11" stroke="black" stroke-width="1.412" stroke-linecap="round" stroke-linejoin="round"/>
<path d="M111.957 93.7201C113.5 93.0331 114.431 91.7571 114.036 90.8701C113.641 89.9831 112.07 89.8211 110.527 90.5081C108.984 91.1951 108.053 92.4711 108.448 93.3581C108.843 94.2441 110.414 94.4071 111.957 93.7201Z" stroke="black" stroke-width="0.941" stroke-linecap="round" stroke-linejoin="round"/>
<path d="M111.957 93.72C112.883 93.307 113.313 92.254 112.918 91.368C112.524 90.481 111.453 90.096 110.527 90.508C109.601 90.92 109.171 91.973 109.566 92.86C109.96 93.747 111.031 94.131 111.957 93.72Z" fill="black"/>
<path fill-rule="evenodd" clip-rule="evenodd" d="M88.178 76.7039C98.03 69.2139 106.543 66.0009 113.718 67.0639C124.479 68.6579 123.598 86.6289 102.979 90.0609C89.233 92.3489 84.299 87.8969 88.178 76.7039Z" fill="black"/>
<path fill-rule="evenodd" clip-rule="evenodd" d="M80.731 82.46C79.922 77.703 91.282 62.604 100.294 62.567C106.302 62.542 107.258 68.16 103.162 79.421C88.747 84.617 81.271 85.63 80.732 82.459L80.731 82.46ZM58.552 83.271L60.942 82.257C65.874 80.163 71.57 82.464 73.664 87.397L123.403 204.575L99.725 205.098L53.413 95.993C51.319 91.06 53.62 85.365 58.553 83.271H58.552Z" fill="black"/>
<path d="M291.196 140.318V204.653M334.531 140.318V204.653M286.512 143.953H338.859" stroke="#436FFF" stroke-width="1.384" stroke-linecap="round" stroke-linejoin="round"/>
<path d="M298.976 143.92V177.815" stroke="#436FFF" stroke-width="0.97" stroke-linecap="round" stroke-linejoin="round"/>
<path d="M298.976 185.963C299.528 185.963 300.075 185.854 300.585 185.643C301.095 185.431 301.559 185.122 301.949 184.731C302.34 184.341 302.649 183.877 302.861 183.367C303.072 182.857 303.181 182.31 303.181 181.757C303.18 181.205 303.072 180.658 302.86 180.148C302.649 179.638 302.339 179.175 301.949 178.784C301.558 178.394 301.094 178.084 300.584 177.873C300.074 177.662 299.527 177.553 298.975 177.553C297.86 177.553 296.79 177.996 296.002 178.785C295.213 179.574 294.77 180.643 294.771 181.758C294.771 182.874 295.214 183.943 296.002 184.732C296.791 185.52 297.861 185.963 298.976 185.963Z" fill="#436FFF"/>
<path d="M308.031 143.92V177.815" stroke="#436FFF" stroke-width="0.97" stroke-linecap="round" stroke-linejoin="round"/>
<path d="M308.031 185.963C308.583 185.963 309.13 185.854 309.64 185.643C310.15 185.431 310.614 185.122 311.004 184.731C311.395 184.341 311.704 183.877 311.916 183.367C312.127 182.857 312.236 182.31 312.235 181.757C312.235 181.205 312.127 180.658 311.915 180.148C311.704 179.638 311.394 179.175 311.003 178.784C310.613 178.394 310.149 178.084 309.639 177.873C309.129 177.662 308.582 177.553 308.03 177.553C306.915 177.553 305.845 177.996 305.057 178.785C304.268 179.574 303.825 180.643 303.825 181.758C303.826 182.874 304.269 183.943 305.057 184.732C305.846 185.52 306.916 185.963 308.031 185.963Z" fill="#436FFF"/>
<path d="M317.086 143.92V177.815" stroke="#436FFF" stroke-width="0.97" stroke-linecap="round" stroke-linejoin="round"/>
<path d="M317.086 185.963C317.638 185.963 318.185 185.854 318.695 185.643C319.205 185.431 319.669 185.122 320.059 184.731C320.45 184.341 320.759 183.877 320.97 183.367C321.182 182.857 321.29 182.31 321.29 181.757C321.29 181.205 321.181 180.658 320.97 180.148C320.759 179.638 320.449 179.175 320.058 178.784C319.668 178.394 319.204 178.084 318.694 177.873C318.184 177.662 317.637 177.553 317.085 177.553C315.97 177.553 314.9 177.996 314.112 178.785C313.323 179.574 312.88 180.643 312.88 181.758C312.881 182.874 313.324 183.943 314.112 184.732C314.901 185.52 315.971 185.963 317.086 185.963Z" fill="#436FFF"/>
<path d="M326.141 143.92V177.815" stroke="#436FFF" stroke-width="0.97" stroke-linecap="round" stroke-linejoin="round"/>
<path d="M326.141 185.963C327.256 185.963 328.326 185.52 329.114 184.731C329.903 183.943 330.346 182.873 330.346 181.758C330.346 180.643 329.903 179.573 329.114 178.785C328.326 177.996 327.256 177.553 326.141 177.553C325.026 177.553 323.956 177.996 323.168 178.785C322.379 179.573 321.936 180.643 321.936 181.758C321.936 182.873 322.379 183.943 323.168 184.731C323.956 185.52 325.026 185.963 326.141 185.963Z" fill="#436FFF"/>
</svg>
