<svg width="311" height="253" viewBox="0 0 311 253" fill="none" xmlns="http://www.w3.org/2000/svg">
<mask id="mask0_18128_818" style="mask-type:alpha" maskUnits="userSpaceOnUse" x="0" y="0" width="311" height="253">
<path d="M186.052 23.1597C249.566 61.0657 287.69 67.7927 304.456 118.262C321.221 168.731 305.372 231.544 245.348 247.019C185.323 262.493 183.694 236.837 93.1009 240.92C2.50686 245.003 -29.6811 113.229 31.2309 53.0927C92.1429 -7.04434 122.538 -14.7453 186.052 23.1597Z" fill="white"/>
</mask>
<g mask="url(#mask0_18128_818)">
<path d="M136.116 210.238C182.898 210.238 220.823 172.314 220.823 125.531C220.823 78.7487 182.898 40.8247 136.116 40.8247C89.3338 40.8247 51.4098 78.7487 51.4098 125.531C51.4098 172.314 89.3338 210.238 136.116 210.238Z" fill="black"/>
<path d="M82.1758 130.36C82.441 130.36 82.6954 130.254 82.8829 130.067C83.0705 129.879 83.1758 129.625 83.1758 129.36C83.1758 129.094 83.0705 128.84 82.8829 128.653C82.6954 128.465 82.441 128.36 82.1758 128.36C81.9106 128.36 81.6563 128.465 81.4687 128.653C81.2812 128.84 81.1758 129.094 81.1758 129.36C81.1758 129.625 81.2812 129.879 81.4687 130.067C81.6563 130.254 81.9106 130.36 82.1758 130.36ZM83.2758 152.14C83.541 152.14 83.7954 152.034 83.9829 151.847C84.1705 151.659 84.2758 151.405 84.2758 151.14C84.2758 150.874 84.1705 150.62 83.9829 150.433C83.7954 150.245 83.541 150.14 83.2758 150.14C83.0106 150.14 82.7562 150.245 82.5687 150.433C82.3812 150.62 82.2758 150.874 82.2758 151.14C82.2758 151.405 82.3812 151.659 82.5687 151.847C82.7562 152.034 83.0106 152.14 83.2758 152.14ZM121.116 125.401C121.408 125.401 121.688 125.284 121.894 125.078C122.1 124.871 122.216 124.592 122.216 124.3C122.216 124.008 122.1 123.728 121.893 123.522C121.687 123.315 121.407 123.2 121.115 123.2C120.823 123.2 120.543 123.316 120.337 123.522C120.131 123.729 120.015 124.009 120.015 124.301C120.015 124.593 120.131 124.872 120.338 125.079C120.544 125.285 120.824 125.401 121.116 125.401ZM202.736 134.761C203.001 134.761 203.255 134.655 203.443 134.468C203.63 134.28 203.736 134.026 203.736 133.761C203.736 133.495 203.63 133.241 203.443 133.054C203.255 132.866 203.001 132.761 202.736 132.761C202.471 132.761 202.216 132.866 202.029 133.054C201.841 133.241 201.736 133.495 201.736 133.761C201.736 134.026 201.841 134.28 202.029 134.468C202.216 134.655 202.471 134.761 202.736 134.761ZM197.016 142.241C197.281 142.241 197.535 142.135 197.723 141.948C197.91 141.76 198.016 141.506 198.016 141.241C198.016 140.975 197.91 140.721 197.723 140.534C197.535 140.346 197.281 140.241 197.016 140.241C196.751 140.241 196.496 140.346 196.309 140.534C196.121 140.721 196.016 140.975 196.016 141.241C196.016 141.506 196.121 141.76 196.309 141.948C196.496 142.135 196.751 142.241 197.016 142.241ZM75.5758 151.04C75.841 151.04 76.0954 150.934 76.2829 150.747C76.4705 150.559 76.5758 150.305 76.5758 150.04C76.5758 149.774 76.4705 149.52 76.2829 149.333C76.0954 149.145 75.841 149.04 75.5758 149.04C75.3106 149.04 75.0562 149.145 74.8687 149.333C74.6812 149.52 74.5758 149.774 74.5758 150.04C74.5758 150.305 74.6812 150.559 74.8687 150.747C75.0562 150.934 75.3106 151.04 75.5758 151.04ZM110.336 104.84C110.601 104.84 110.855 104.734 111.043 104.547C111.23 104.359 111.336 104.105 111.336 103.84C111.336 103.574 111.23 103.32 111.043 103.133C110.855 102.945 110.601 102.84 110.336 102.84C110.071 102.84 109.816 102.945 109.629 103.133C109.441 103.32 109.336 103.574 109.336 103.84C109.336 104.105 109.441 104.359 109.629 104.547C109.816 104.734 110.071 104.84 110.336 104.84ZM76.0158 115.84C76.281 115.84 76.5354 115.734 76.7229 115.547C76.9105 115.359 77.0158 115.105 77.0158 114.84C77.0158 114.574 76.9105 114.32 76.7229 114.133C76.5354 113.945 76.281 113.84 76.0158 113.84C75.7506 113.84 75.4963 113.945 75.3087 114.133C75.1212 114.32 75.0158 114.574 75.0158 114.84C75.0158 115.105 75.1212 115.359 75.3087 115.547C75.4963 115.734 75.7506 115.84 76.0158 115.84ZM110.996 112.98C111.261 112.98 111.515 112.874 111.703 112.687C111.89 112.499 111.996 112.245 111.996 111.98C111.996 111.714 111.89 111.46 111.703 111.273C111.515 111.085 111.261 110.98 110.996 110.98C110.731 110.98 110.476 111.085 110.289 111.273C110.101 111.46 109.996 111.714 109.996 111.98C109.996 112.245 110.101 112.499 110.289 112.687C110.476 112.874 110.731 112.98 110.996 112.98ZM99.9958 129.261C100.261 129.261 100.515 129.155 100.703 128.968C100.89 128.78 100.996 128.526 100.996 128.261C100.996 127.995 100.89 127.741 100.703 127.554C100.515 127.366 100.261 127.261 99.9958 127.261C99.7306 127.261 99.4762 127.366 99.2887 127.554C99.1012 127.741 98.9958 127.995 98.9958 128.261C98.9958 128.526 99.1012 128.78 99.2887 128.968C99.4762 129.155 99.7306 129.261 99.9958 129.261ZM134.096 129.48C134.361 129.48 134.615 129.374 134.803 129.187C134.99 128.999 135.096 128.745 135.096 128.48C135.096 128.214 134.99 127.96 134.803 127.773C134.615 127.585 134.361 127.48 134.096 127.48C133.831 127.48 133.576 127.585 133.389 127.773C133.201 127.96 133.096 128.214 133.096 128.48C133.096 128.745 133.201 128.999 133.389 129.187C133.576 129.374 133.831 129.48 134.096 129.48ZM126.396 79.6397C126.688 79.6397 126.967 79.5238 127.174 79.3175C127.38 79.1112 127.496 78.8314 127.496 78.5397C127.496 78.2479 127.38 77.9681 127.174 77.7618C126.967 77.5556 126.688 77.4397 126.396 77.4397C126.104 77.4397 125.824 77.5556 125.618 77.7618C125.412 77.9681 125.296 78.2479 125.296 78.5397C125.296 78.8314 125.412 79.1112 125.618 79.3175C125.824 79.5238 126.104 79.6397 126.396 79.6397ZM118.916 96.7997C119.208 96.7997 119.487 96.6838 119.694 96.4775C119.9 96.2712 120.016 95.9914 120.016 95.6997C120.016 95.4079 119.9 95.1281 119.694 94.9218C119.487 94.7155 119.208 94.5997 118.916 94.5997C118.624 94.5997 118.344 94.7155 118.138 94.9218C117.932 95.1281 117.816 95.4079 117.816 95.6997C117.816 95.9914 117.932 96.2712 118.138 96.4775C118.344 96.6838 118.624 96.7997 118.916 96.7997ZM156.316 85.7997C156.608 85.7997 156.887 85.6838 157.094 85.4775C157.3 85.2712 157.416 84.9914 157.416 84.6997C157.416 84.4079 157.3 84.1281 157.094 83.9218C156.887 83.7155 156.608 83.5997 156.316 83.5997C156.024 83.5997 155.744 83.7155 155.538 83.9218C155.332 84.1281 155.216 84.4079 155.216 84.6997C155.216 84.9914 155.332 85.2712 155.538 85.4775C155.744 85.6838 156.024 85.7997 156.316 85.7997ZM110.776 95.1607C111.041 95.1607 111.295 95.0553 111.483 94.8678C111.67 94.6802 111.776 94.4259 111.776 94.1607C111.776 93.8954 111.67 93.6411 111.483 93.4536C111.295 93.266 111.041 93.1607 110.776 93.1607C110.511 93.1607 110.256 93.266 110.069 93.4536C109.881 93.6411 109.776 93.8954 109.776 94.1607C109.776 94.4259 109.881 94.6802 110.069 94.8678C110.256 95.0553 110.511 95.1607 110.776 95.1607ZM145.536 65.2407C145.801 65.2407 146.055 65.1353 146.243 64.9478C146.43 64.7602 146.536 64.5059 146.536 64.2407C146.536 63.9754 146.43 63.7211 146.243 63.5335C146.055 63.346 145.801 63.2407 145.536 63.2407C145.271 63.2407 145.016 63.346 144.829 63.5335C144.641 63.7211 144.536 63.9754 144.536 64.2407C144.536 64.5059 144.641 64.7602 144.829 64.9478C145.016 65.1353 145.271 65.2407 145.536 65.2407ZM100.656 124.64C100.921 124.64 101.175 124.534 101.363 124.347C101.55 124.159 101.656 123.905 101.656 123.64C101.656 123.374 101.55 123.12 101.363 122.933C101.175 122.745 100.921 122.64 100.656 122.64C100.391 122.64 100.136 122.745 99.9487 122.933C99.7612 123.12 99.6558 123.374 99.6558 123.64C99.6558 123.905 99.7612 124.159 99.9487 124.347C100.136 124.534 100.391 124.64 100.656 124.64ZM92.9558 74.7997C93.2476 74.7997 93.5274 74.6838 93.7336 74.4775C93.9399 74.2712 94.0558 73.9914 94.0558 73.6997C94.0558 73.4079 93.9399 73.1281 93.7336 72.9218C93.5274 72.7155 93.2476 72.5997 92.9558 72.5997C92.6641 72.5997 92.3843 72.7155 92.178 72.9218C91.9717 73.1281 91.8558 73.4079 91.8558 73.6997C91.8558 73.9914 91.9717 74.2712 92.178 74.4775C92.3843 74.6838 92.6641 74.7997 92.9558 74.7997ZM85.4758 91.9607C85.6203 91.9606 85.7634 91.9321 85.8969 91.8767C86.0304 91.8213 86.1517 91.7402 86.2538 91.638C86.356 91.5357 86.437 91.4144 86.4922 91.2808C86.5475 91.1473 86.5759 91.0042 86.5758 90.8597C86.5758 90.7151 86.5472 90.572 86.4919 90.4386C86.4365 90.3051 86.3554 90.1838 86.2531 90.0816C86.1509 89.9795 86.0296 89.8985 85.896 89.8432C85.7625 89.788 85.6193 89.7596 85.4748 89.7597C85.183 89.7598 84.9031 89.8759 84.6968 90.0823C84.4905 90.2888 84.3747 90.5688 84.3748 90.8607C84.375 91.1525 84.491 91.4324 84.6975 91.6387C84.904 91.845 85.184 91.9608 85.4758 91.9607ZM122.876 80.9607C123.02 80.9606 123.163 80.9321 123.297 80.8767C123.43 80.8213 123.552 80.7402 123.654 80.638C123.756 80.5357 123.837 80.4144 123.892 80.2808C123.947 80.1473 123.976 80.0042 123.976 79.8597C123.976 79.7151 123.947 79.572 123.892 79.4386C123.836 79.3051 123.755 79.1838 123.653 79.0816C123.551 78.9795 123.43 78.8985 123.296 78.8432C123.162 78.788 123.019 78.7596 122.875 78.7597C122.583 78.7598 122.303 78.8759 122.097 79.0823C121.891 79.2888 121.775 79.5688 121.775 79.8607C121.775 80.1525 121.891 80.4324 122.098 80.6387C122.304 80.845 122.584 80.9608 122.876 80.9607ZM68.0958 103.52C68.361 103.52 68.6154 103.414 68.8029 103.227C68.9905 103.039 69.0958 102.785 69.0958 102.52C69.0958 102.254 68.9905 102 68.8029 101.813C68.6154 101.625 68.361 101.52 68.0958 101.52C67.8306 101.52 67.5763 101.625 67.3887 101.813C67.2012 102 67.0958 102.254 67.0958 102.52C67.0958 102.785 67.2012 103.039 67.3887 103.227C67.5763 103.414 67.8306 103.52 68.0958 103.52ZM112.096 60.3997C112.361 60.3997 112.615 60.2943 112.803 60.1068C112.99 59.9192 113.096 59.6649 113.096 59.3997C113.096 59.1344 112.99 58.8801 112.803 58.6926C112.615 58.505 112.361 58.3997 112.096 58.3997C111.831 58.3997 111.576 58.505 111.389 58.6926C111.201 58.8801 111.096 59.1344 111.096 59.3997C111.096 59.6649 111.201 59.9192 111.389 60.1068C111.576 60.2943 111.831 60.3997 112.096 60.3997ZM111.216 76.2407C111.481 76.2407 111.735 76.1353 111.923 75.9478C112.11 75.7602 112.216 75.5059 112.216 75.2407C112.216 74.9754 112.11 74.7211 111.923 74.5335C111.735 74.346 111.481 74.2407 111.216 74.2407C110.951 74.2407 110.696 74.346 110.509 74.5335C110.321 74.7211 110.216 74.9754 110.216 75.2407C110.216 75.5059 110.321 75.7602 110.509 75.9478C110.696 76.1353 110.951 76.2407 111.216 76.2407ZM154.996 77.7807C155.261 77.7807 155.515 77.6753 155.703 77.4878C155.89 77.3002 155.996 77.0459 155.996 76.7807C155.996 76.5154 155.89 76.2611 155.703 76.0735C155.515 75.886 155.261 75.7807 154.996 75.7807C154.731 75.7807 154.476 75.886 154.289 76.0735C154.101 76.2611 153.996 76.5154 153.996 76.7807C153.996 77.0459 154.101 77.3002 154.289 77.4878C154.476 77.6753 154.731 77.7807 154.996 77.7807ZM135.196 89.6607C135.461 89.6607 135.715 89.5553 135.903 89.3678C136.09 89.1802 136.196 88.9259 136.196 88.6607C136.196 88.3954 136.09 88.1411 135.903 87.9536C135.715 87.766 135.461 87.6607 135.196 87.6607C134.931 87.6607 134.676 87.766 134.489 87.9536C134.301 88.1411 134.196 88.3954 134.196 88.6607C134.196 88.9259 134.301 89.1802 134.489 89.3678C134.676 89.5553 134.931 89.6607 135.196 89.6607ZM169.296 89.8797C169.561 89.8797 169.815 89.7743 170.003 89.5868C170.19 89.3992 170.296 89.1449 170.296 88.8797C170.296 88.6144 170.19 88.3601 170.003 88.1725C169.815 87.985 169.561 87.8797 169.296 87.8797C169.031 87.8797 168.776 87.985 168.589 88.1725C168.401 88.3601 168.296 88.6144 168.296 88.8797C168.296 89.1449 168.401 89.3992 168.589 89.5868C168.776 89.7743 169.031 89.8797 169.296 89.8797Z" fill="white"/>
<path d="M206.734 189.157L197.362 198.529L219.491 220.659L228.864 211.286L206.734 189.157Z" fill="#541F9D"/>
<path fill-rule="evenodd" clip-rule="evenodd" d="M183.889 196.772L205.27 175.391L214.935 185.056C216.488 186.609 217.361 188.716 217.361 190.914C217.361 193.111 216.488 195.218 214.935 196.772L205.27 206.437C203.716 207.99 201.609 208.863 199.412 208.863C197.215 208.863 195.107 207.99 193.554 206.437L183.889 196.772Z" fill="#BD93F7"/>
<path d="M222.909 206.437L214.935 214.41C208.645 220.701 208.645 230.9 214.935 237.191L248.13 270.385C254.421 276.676 264.62 276.676 270.91 270.385L278.884 262.412C285.174 256.122 285.174 245.922 278.884 239.632L245.689 206.437C239.398 200.147 229.199 200.147 222.909 206.437Z" fill="#BD93F7"/>
<path d="M194.579 186.081C227.659 153.001 227.659 99.3675 194.579 66.2875C161.499 33.2075 107.866 33.2075 74.7858 66.2875C41.7058 99.3675 41.7058 153.001 74.7858 186.081C107.866 219.161 161.499 219.161 194.579 186.081Z" stroke="#9854F6" stroke-width="20.711"/>
<mask id="mask1_18128_818" style="mask-type:alpha" maskUnits="userSpaceOnUse" x="60" y="32" width="193" height="169">
<path d="M134.64 200.64C175.83 200.64 209.22 167.25 209.22 126.06C209.22 112.202 258.705 68.2226 252.12 57.1046C239.134 35.1776 167.103 32.1196 139.772 32.1196C98.5818 32.1196 60.0598 84.8706 60.0598 126.06C60.0598 167.25 93.4508 200.64 134.64 200.64Z" fill="white"/>
</mask>
<g mask="url(#mask1_18128_818)">
<path fill-rule="evenodd" clip-rule="evenodd" d="M231.173 73.0346C231.637 77.3958 230.534 81.7798 228.062 85.4026L189.839 141.43L199.934 162.13C187.221 185.093 162.746 200.641 134.64 200.641C132.442 200.641 130.245 200.545 128.055 200.354L123.824 190.828L122.424 199.645C108.104 197.285 95.1599 190.847 84.8229 181.563L87.1379 157.725C87.418 154.835 88.4087 152.06 90.0216 149.646C91.6345 147.232 93.8195 145.255 96.3819 143.891L136.296 122.632L162.803 99.5186L187.264 78.3096L128.36 79.6406L127.587 65.9376L152.198 62.8456L210.843 56.6116C220.992 55.5316 230.094 62.8856 231.173 73.0346Z" fill="white"/>
<path fill-rule="evenodd" clip-rule="evenodd" d="M127.636 129.099L119.208 109.249L137.331 101.559L145.758 121.408" fill="white"/>
<path d="M127.636 129.099L119.208 109.249L137.331 101.559L145.758 121.408" stroke="black" stroke-width="1.32" stroke-linecap="round" stroke-linejoin="round"/>
<mask id="mask2_18128_818" style="mask-type:alpha" maskUnits="userSpaceOnUse" x="119" y="101" width="27" height="32">
<path d="M119.208 109.248L137.329 101.559L144.489 118.421C146.614 123.427 144.281 129.207 139.277 131.33C134.273 133.454 128.493 131.117 126.368 126.111L119.208 109.248Z" fill="white"/>
</mask>
<g mask="url(#mask2_18128_818)">
<path d="M139.747 112.456C151.051 107.659 156.619 95.3006 152.184 84.8536C147.748 74.4066 134.989 69.8266 123.685 74.6236C112.381 79.4216 106.813 91.7786 111.249 102.226C115.684 112.673 128.443 117.253 139.747 112.456Z" fill="black"/>
</g>
<path d="M114.443 65.6096L109.362 67.7666C101.661 71.0336 98.0699 79.9276 101.341 87.6306L106.075 98.7816C109.346 106.485 118.239 110.08 125.939 106.812L131.02 104.656C138.72 101.388 142.311 92.4946 139.041 84.7916L134.306 73.6406C131.036 65.9376 122.143 62.3416 114.443 65.6096Z" fill="black"/>
<path fill-rule="evenodd" clip-rule="evenodd" d="M136.588 84.3277L138.313 83.2607C138.788 82.9671 139.324 82.7865 139.88 82.7328C140.436 82.679 140.997 82.7536 141.52 82.9508C142.042 83.1479 142.513 83.4624 142.895 83.87C143.277 84.2776 143.56 84.7674 143.723 85.3017L143.772 85.4607C144.194 86.8415 144.189 88.3175 143.757 89.6952C143.326 91.073 142.488 92.2883 141.354 93.1817L140.6 93.7767L136.588 84.3277Z" fill="white" stroke="black" stroke-width="1.32" stroke-linecap="round" stroke-linejoin="round"/>
<path d="M139.772 86.3296L141.021 89.2716M140.557 88.1786L141.464 86.4836" stroke="black" stroke-width="1.32" stroke-linecap="round" stroke-linejoin="round"/>
<path fill-rule="evenodd" clip-rule="evenodd" d="M107.57 96.6445L105.605 97.1445C105.063 97.282 104.561 97.5419 104.136 97.9043C103.711 98.2667 103.375 98.7219 103.153 99.2348C102.932 99.7476 102.831 100.304 102.859 100.862C102.887 101.42 103.043 101.964 103.314 102.453L103.395 102.599C104.095 103.861 105.161 104.883 106.452 105.53C107.743 106.177 109.199 106.419 110.63 106.224L111.582 106.095L107.57 96.6445Z" fill="white" stroke="black" stroke-width="1.32" stroke-linecap="round" stroke-linejoin="round"/>
<path d="M106.8 100.326L108.049 103.268M107.584 102.176L105.735 101.651" stroke="black" stroke-width="1.32" stroke-linecap="round" stroke-linejoin="round"/>
<path fill-rule="evenodd" clip-rule="evenodd" d="M134.678 79.8417L139.121 90.3057C142.523 98.3187 138.787 107.572 130.777 110.971C122.766 114.371 113.514 110.63 110.112 102.617L105.669 92.1527C102.267 84.1387 106.002 74.8867 114.013 71.4867C122.024 68.0877 131.276 71.8277 134.678 79.8417Z" fill="white" stroke="black" stroke-width="1.32" stroke-linecap="round" stroke-linejoin="round"/>
<path d="M127.81 103.025C129.116 102.471 130.15 101.422 130.682 100.107C131.215 98.7919 131.204 97.3192 130.651 96.0126M122.487 93.7776L123.466 97.7426L125.655 97.2256" stroke="black" stroke-width="1.32" stroke-linecap="round" stroke-linejoin="round"/>
<path d="M114.721 95.7636C116.299 95.0946 117.267 93.8186 116.883 92.9136C116.499 92.0086 114.908 91.8176 113.33 92.4876C111.752 93.1576 110.785 94.4335 111.169 95.3385C111.553 96.2425 113.143 96.4336 114.721 95.7636Z" stroke="black" stroke-width="0.73" stroke-linecap="round" stroke-linejoin="round"/>
<path d="M114.721 95.7636C115.668 95.3616 116.124 94.3026 115.74 93.3976C115.356 92.4936 114.277 92.0856 113.33 92.4876C112.384 92.8896 111.928 93.9486 112.312 94.8526C112.696 95.7576 113.775 96.1656 114.721 95.7636Z" fill="black"/>
<path d="M130.548 89.0466C132.126 88.3766 133.094 87.1006 132.71 86.1956C132.325 85.2906 130.735 85.1006 129.157 85.7696C127.579 86.4396 126.611 87.7156 126.995 88.6206C127.379 89.5256 128.97 89.7156 130.548 89.0466Z" stroke="black" stroke-width="0.73" stroke-linecap="round" stroke-linejoin="round"/>
<path d="M130.548 89.0455C131.495 88.6435 131.951 87.5845 131.567 86.6805C131.183 85.7755 130.104 85.3675 129.157 85.7695C128.21 86.1715 127.754 87.2305 128.138 88.1345C128.522 89.0395 129.601 89.4475 130.548 89.0455Z" fill="black"/>
<path fill-rule="evenodd" clip-rule="evenodd" d="M118.389 60.5295C120.957 60.3075 122.464 61.5995 122.91 64.4025C126.001 63.6365 128.897 63.5105 131.598 64.0265C137.639 65.1805 139.904 71.7145 136.857 77.5295C137.12 78.9645 137.414 80.7125 137.74 82.7725C136.892 83.6675 136.292 84.0535 135.942 83.9305C134.818 83.5311 133.754 82.9815 132.778 82.2965C130.056 84.4075 126.252 86.0485 121.243 86.7255C113.99 87.7065 109.268 86.7705 107.078 83.9205C107.587 88.4745 107.449 92.4015 106.664 95.7005C100.434 92.1805 97.1349 88.2345 96.7679 83.8625C96.4439 80.0055 98.0129 77.8275 101.473 77.3265C102.402 71.8045 111.295 61.1415 118.389 60.5295Z" fill="black"/>
<path d="M106.664 95.7006C101.02 92.3746 97.1349 88.2336 96.7679 83.8626C96.4439 80.0056 98.0129 77.8266 101.473 77.3266C102.403 71.8036 111.295 61.1416 118.389 60.5296C120.956 60.3076 122.464 61.5986 122.91 64.4026C126.001 63.6356 128.897 63.5106 131.598 64.0266C136.901 65.0396 138.301 70.7786 136.746 75.9576C137.12 78.0316 137.378 80.6376 137.74 82.7716" stroke="white" stroke-width="0.88" stroke-linecap="round" stroke-linejoin="round"/>
<path d="M124.996 197.951L121.225 190.295" stroke="black" stroke-width="1.32" stroke-linecap="round" stroke-linejoin="round"/>
<path d="M117.817 138.214L145.283 141.632L155.212 116.38" stroke="black" stroke-width="1.32" stroke-linejoin="round"/>
<path fill-rule="evenodd" clip-rule="evenodd" d="M147.137 48.1496L149.368 93.6776L166.061 91.9496L151.611 108.878L211.642 236.338L230.741 200.171L196.575 138.86L231.731 84.3546C239.633 72.1046 236.109 55.7626 223.862 47.8526C219.04 44.7376 213.335 43.2799 207.61 43.7006L147.137 48.1496Z" fill="#EAEBED" stroke="black" stroke-width="1.32" stroke-linejoin="round"/>
<path d="M165.136 93.1025L174.78 80.9045" stroke="black" stroke-width="1.32" stroke-linecap="round" stroke-linejoin="round"/>
<path fill-rule="evenodd" clip-rule="evenodd" d="M162.93 96.0107L168.417 128.479L176.437 126.883C177.388 126.694 178.367 126.703 179.315 126.91C180.262 127.118 181.156 127.518 181.941 128.087C182.726 128.656 183.385 129.381 183.877 130.217C184.369 131.052 184.682 131.98 184.799 132.943L191.755 190.295" fill="#EAEBED"/>
<path d="M162.93 96.0107L168.417 128.479L176.437 126.883C177.388 126.694 178.367 126.703 179.315 126.91C180.262 127.118 181.156 127.518 181.941 128.087C182.726 128.656 183.385 129.381 183.877 130.217C184.369 131.052 184.682 131.98 184.799 132.943L191.755 190.295" stroke="black" stroke-width="1.32" stroke-linejoin="round"/>
<path fill-rule="evenodd" clip-rule="evenodd" d="M116.564 132.88L170.176 254.976L150.281 264.112L123.109 208.549L119.211 225.646L81.3029 212.289L87.0229 157.999C87.3368 155.016 88.3725 152.154 90.0407 149.661C91.7088 147.168 93.959 145.119 96.5968 143.691L116.564 132.88Z" fill="#EAEBED" stroke="black" stroke-width="1.32" stroke-linejoin="round"/>
<path d="M197.455 140.424L193.644 133.761" stroke="black" stroke-width="1.32" stroke-linecap="round" stroke-linejoin="round"/>
<path fill-rule="evenodd" clip-rule="evenodd" d="M103.335 139.497L122.873 162.106L117.965 173.67C117.503 174.759 117.342 175.953 117.499 177.126C117.656 178.299 118.126 179.408 118.859 180.338L157.416 229.23" fill="#EAEBED"/>
<path d="M103.335 139.497L122.873 162.106L117.965 173.67C117.503 174.759 117.342 175.953 117.499 177.126C117.656 178.299 118.126 179.408 118.859 180.338L157.416 229.23" stroke="black" stroke-width="1.32" stroke-linejoin="round"/>
</g>
<path fill-rule="evenodd" clip-rule="evenodd" d="M143.535 79.2215L95.9798 83.0916C94.3387 83.2246 92.7088 82.7256 91.4235 81.6965C90.1383 80.6674 89.2948 79.186 89.0658 77.5555C88.9548 76.7676 89.0002 75.9655 89.1992 75.1951C89.3983 74.4247 89.7472 73.701 90.226 73.0654C90.7048 72.4299 91.3041 71.8949 91.9897 71.491C92.6753 71.0871 93.4338 70.8222 94.2218 70.7115L94.2488 70.7076L146.069 63.6646" fill="white"/>
<path d="M143.535 79.2215L95.9798 83.0916C94.3387 83.2246 92.7088 82.7256 91.4235 81.6965C90.1383 80.6674 89.2948 79.186 89.0658 77.5555C88.9548 76.7676 89.0002 75.9655 89.1992 75.1951C89.3983 74.4247 89.7472 73.701 90.226 73.0654C90.7048 72.4299 91.3041 71.8949 91.9897 71.491C92.6753 71.0871 93.4338 70.8222 94.2218 70.7115L94.2488 70.7076L146.069 63.6646" stroke="black" stroke-width="1.716" stroke-linecap="round" stroke-linejoin="round"/>
<path fill-rule="evenodd" clip-rule="evenodd" d="M143.536 79.2205L110.206 81.2225C108.551 81.3216 106.92 80.7938 105.637 79.7441C104.354 78.6945 103.514 77.2 103.283 75.5585C103.172 74.7718 103.218 73.9709 103.416 73.2017C103.615 72.4325 103.963 71.7099 104.442 71.0753C104.92 70.4407 105.518 69.9065 106.202 69.5032C106.887 69.0998 107.644 68.8352 108.431 68.7245L108.467 68.7195L146.069 63.6655" fill="white"/>
<path d="M143.536 79.2205L110.206 81.2225C108.551 81.3216 106.92 80.7938 105.637 79.7441C104.354 78.6945 103.514 77.2 103.283 75.5585C103.172 74.7718 103.218 73.9709 103.416 73.2017C103.615 72.4325 103.963 71.7099 104.442 71.0753C104.92 70.4407 105.518 69.9065 106.202 69.5032C106.887 69.0998 107.644 68.8352 108.431 68.7245L108.467 68.7195L146.069 63.6655" stroke="black" stroke-width="1.32" stroke-linecap="round" stroke-linejoin="round"/>
<path d="M88.6458 173.837C89.0346 173.074 89.2692 172.242 89.3364 171.388C89.4035 170.534 89.3019 169.676 89.0373 168.862C88.7727 168.047 88.3503 167.293 87.7942 166.642C87.2381 165.991 86.5593 165.456 85.7963 165.067C85.0334 164.678 84.2014 164.444 83.3478 164.377C82.4942 164.309 81.6358 164.411 80.8214 164.676C80.0071 164.94 79.2529 165.363 78.6018 165.919C77.9507 166.475 77.4156 167.154 77.0268 167.917L70.5118 180.703C70.1172 181.466 69.8775 182.3 69.8063 183.157C69.7352 184.013 69.8341 184.875 70.0973 185.693C70.3606 186.511 70.783 187.269 71.3402 187.924C71.8975 188.578 72.5786 189.116 73.3444 189.506C74.1102 189.896 74.9456 190.131 75.8025 190.197C76.6594 190.263 77.5209 190.159 78.3374 189.891C79.154 189.623 79.9095 189.196 80.5606 188.635C81.2116 188.074 81.7452 187.39 82.1308 186.622L88.6458 173.837Z" fill="white" stroke="black" stroke-width="1.32" stroke-linecap="round" stroke-linejoin="round"/>
<path d="M100.269 179.758C100.672 178.993 100.919 178.156 100.996 177.296C101.073 176.435 100.978 175.567 100.717 174.744C100.456 173.92 100.033 173.156 99.4744 172.497C98.9154 171.838 98.231 171.297 97.4609 170.905C96.6909 170.512 95.8505 170.277 94.9887 170.212C94.127 170.148 93.2609 170.255 92.441 170.528C91.6211 170.801 90.8636 171.234 90.2125 171.803C89.5615 172.371 89.03 173.063 88.6488 173.839L82.1338 186.625C81.7392 187.388 81.4994 188.222 81.4283 189.079C81.3571 189.935 81.456 190.797 81.7193 191.615C81.9825 192.434 82.4049 193.192 82.9622 193.846C83.5194 194.5 84.2005 195.038 84.9663 195.428C85.7321 195.818 86.5675 196.053 87.4244 196.119C88.2813 196.185 89.1428 196.081 89.9594 195.813C90.776 195.545 91.5315 195.118 92.1825 194.557C92.8335 193.996 93.3672 193.312 93.7528 192.544L100.269 179.758Z" fill="white" stroke="black" stroke-width="1.32" stroke-linecap="round" stroke-linejoin="round"/>
<path d="M111.891 185.68C112.285 184.916 112.525 184.082 112.596 183.226C112.667 182.369 112.569 181.507 112.305 180.689C112.042 179.871 111.62 179.113 111.062 178.459C110.505 177.804 109.824 177.267 109.058 176.876C108.292 176.486 107.457 176.251 106.6 176.185C105.743 176.119 104.882 176.223 104.065 176.491C103.249 176.759 102.493 177.186 101.842 177.747C101.191 178.308 100.657 178.993 100.272 179.761L93.7558 192.547C93.3526 193.311 93.1053 194.148 93.0283 195.009C92.9514 195.869 93.0463 196.737 93.3076 197.561C93.5688 198.384 93.9912 199.148 94.5502 199.807C95.1092 200.466 95.7936 201.008 96.5636 201.4C97.3337 201.792 98.174 202.027 99.0358 202.092C99.8976 202.157 100.764 202.049 101.584 201.776C102.404 201.503 103.161 201.07 103.812 200.502C104.463 199.933 104.995 199.241 105.376 198.466L111.891 185.68Z" fill="white" stroke="black" stroke-width="1.32" stroke-linecap="round" stroke-linejoin="round"/>
<path d="M123.513 191.602C123.907 190.838 124.147 190.004 124.218 189.148C124.289 188.291 124.191 187.429 123.927 186.611C123.664 185.793 123.242 185.035 122.684 184.38C122.127 183.726 121.446 183.188 120.68 182.798C119.914 182.408 119.079 182.173 118.222 182.107C117.365 182.041 116.504 182.145 115.687 182.413C114.871 182.681 114.115 183.108 113.464 183.669C112.813 184.23 112.279 184.914 111.894 185.683L105.379 198.468C104.99 199.23 104.755 200.062 104.688 200.916C104.621 201.77 104.723 202.628 104.987 203.442C105.252 204.257 105.674 205.011 106.23 205.662C106.787 206.313 107.465 206.848 108.228 207.237C108.991 207.626 109.823 207.86 110.677 207.928C111.53 207.995 112.389 207.893 113.203 207.629C114.018 207.364 114.772 206.942 115.423 206.385C116.074 205.829 116.609 205.15 116.998 204.388L123.513 191.602Z" fill="white" stroke="black" stroke-width="1.32" stroke-linecap="round" stroke-linejoin="round"/>
</g>
</svg>
