<svg width="656" height="197" viewBox="0 0 656 197" fill="none" xmlns="http://www.w3.org/2000/svg">
<rect y="0.544922" width="93.7143" height="50" fill="white"/>
<rect x="93.7144" y="0.544922" width="93.7143" height="50" fill="#FBE54D"/>
<rect x="187.429" y="0.544922" width="93.7143" height="50" fill="#74FADB"/>
<rect x="281.143" y="0.544922" width="93.7143" height="50" fill="#68DC42"/>
<rect x="374.857" y="0.544922" width="93.7143" height="50" fill="#E83CF2"/>
<rect x="468.571" y="0.544922" width="93.7143" height="50" fill="#D52D25"/>
<rect x="562.286" y="0.544922" width="93.7143" height="50" fill="#0732B3"/>
<path d="M62.9325 118.455H57.2422V78.5449H80.0424V81.4096H82.8876V84.2547H85.7327V98.5H82.8876V101.365H80.0424V104.21H62.9325V118.455ZM62.9325 98.5H77.1973V95.6548H80.0424V87.0999H77.1973V84.2547H62.9325V98.5Z" fill="black"/>
<path d="M92.8651 118.455H87.1748V109.92H90.02V101.365H92.8651V92.8097H95.7103V84.2547H98.5749V78.5449H107.13V84.2547H109.975V92.8097H112.82V101.365H115.665V109.92H118.53V118.455H112.82V109.92H92.8651V118.455ZM95.7103 104.21H109.975V101.365H107.13V92.8097H104.265V87.0999H101.42V92.8097H98.5749V101.365H95.7103V104.21Z" fill="black"/>
<path d="M145.598 118.455H131.333V115.61H128.488V112.765H125.643V109.92H122.798V87.0999H125.643V84.2547H128.488V81.4096H131.333V78.5449H148.443V81.4096H151.288V84.2547H154.153V87.0999H156.998V92.8097H151.288V89.9645H148.443V87.0999H145.598V84.2547H134.198V87.0999H131.333V89.9645H128.488V107.055H131.333V109.92H134.198V112.765H145.598V109.92H148.443V107.055H151.288V104.21H142.753V98.5H156.998V118.455H151.288V112.765H148.443V115.61H145.598V118.455Z" fill="black"/>
<path d="M191.198 118.455H162.708V78.5449H191.198V84.2547H168.398V94.2323H188.353V99.9421H168.398V112.765H191.198V118.455Z" fill="black"/>
<path d="M213.999 118.455H208.308V78.5449H216.844V84.2547H219.709V89.9645H222.554V95.6548H225.399V101.365H228.263V107.055H231.109V78.5449H236.799V118.455H228.263V112.765H225.399V107.055H222.554V101.365H219.709V95.6548H216.844V89.9645H213.999V118.455Z" fill="black"/>
<path d="M268.174 118.455H251.064V115.61H248.219V112.765H245.373V109.92H242.528V87.0999H245.373V84.2547H248.219V81.4096H251.064V78.5449H268.174V81.4096H271.019V84.2547H273.883V87.0999H276.729V109.92H273.883V112.765H271.019V115.61H268.174V118.455ZM253.928 112.765H265.328V109.92H268.174V107.055H271.019V89.9645H268.174V87.0999H265.328V84.2547H253.928V87.0999H251.064V89.9645H248.219V107.055H251.064V109.92H253.928V112.765Z" fill="black"/>
<path d="M296.703 118.455H291.013V84.2547H279.613V78.5449H308.103V84.2547H296.703V118.455Z" fill="black"/>
<path d="M329.442 118.455H323.752V78.5449H352.242V84.2547H329.442V95.6548H349.397V101.365H329.442V118.455Z" fill="black"/>
<path d="M380.733 118.455H363.623V115.61H360.778V112.765H357.933V109.92H355.087V87.0999H357.933V84.2547H360.778V81.4096H363.623V78.5449H380.733V81.4096H383.578V84.2547H386.443V87.0999H389.288V109.92H386.443V112.765H383.578V115.61H380.733V118.455ZM366.487 112.765H377.888V109.92H380.733V107.055H383.578V89.9645H380.733V87.0999H377.888V84.2547H366.487V87.0999H363.623V89.9645H360.778V107.055H363.623V109.92H366.487V112.765Z" fill="black"/>
<path d="M417.798 118.455H400.688V115.61H397.843V112.765H394.998V78.5449H400.688V109.92H403.533V112.765H414.953V109.92H417.798V78.5449H423.488V112.765H420.643V115.61H417.798V118.455Z" fill="black"/>
<path d="M434.908 118.455H429.217V78.5449H437.753V84.2547H440.617V89.9645H443.463V95.6548H446.308V101.365H449.172V107.055H452.018V78.5449H457.708V118.455H449.172V112.765H446.308V107.055H443.463V101.365H440.617V95.6548H437.753V89.9645H434.908V118.455Z" fill="black"/>
<path d="M486.237 118.455H463.437V78.5449H486.237V81.4096H489.083V84.2547H491.928V87.0999H494.792V109.92H491.928V112.765H489.083V115.61H486.237V118.455ZM469.128 112.765H483.392V109.92H486.237V107.055H489.083V89.9645H486.237V87.0999H483.392V84.2547H469.128V112.765Z" fill="black"/>
<path d="M534.644 118.455H528.934V109.92H511.844V101.365H514.689V95.6548H517.534V89.9645H520.379V84.2547H523.244V78.5449H534.644V105.632H537.489V109.92H534.644V118.455ZM517.534 105.632H528.934V84.2547H526.089V89.9645H523.244V95.6548H520.379V101.365H517.534V105.632Z" fill="black"/>
<path d="M561.732 118.455H547.467V115.61H544.622V112.765H541.777V84.2547H544.622V81.4096H547.467V78.5449H561.732V81.4096H564.577V84.2547H567.422V112.765H564.577V115.61H561.732V118.455ZM550.312 112.765H558.867V109.92H561.732V87.0999H558.867V84.2547H550.312V87.0999H547.467V109.92H550.312V112.765Z" fill="black"/>
<path d="M595.913 118.455H590.203V109.92H573.112V101.365H575.957V95.6548H578.803V89.9645H581.648V84.2547H584.512V78.5449H595.913V105.632H598.758V109.92H595.913V118.455ZM578.803 105.632H590.203V84.2547H587.358V89.9645H584.512V95.6548H581.648V101.365H578.803V105.632Z" fill="black"/>
<rect y="146.455" width="93.7143" height="50" fill="white"/>
<rect x="93.7144" y="146.455" width="93.7143" height="50" fill="#FBE54D"/>
<rect x="187.429" y="146.455" width="93.7143" height="50" fill="#74FADB"/>
<rect x="281.143" y="146.455" width="93.7143" height="50" fill="#68DC42"/>
<rect x="374.857" y="146.455" width="93.7143" height="50" fill="#E83CF2"/>
<rect x="468.571" y="146.455" width="93.7143" height="50" fill="#D52D25"/>
<rect x="562.286" y="146.455" width="93.7143" height="50" fill="#0732B3"/>
</svg>
